<svg xmlns="http://www.w3.org/2000/svg" viewBox="0 0 800 500">
  <defs>
    <linearGradient id="bg" x1="0%" y1="0%" x2="100%" y2="100%">
      <stop offset="0%" stop-color="#1a1825"/>
      <stop offset="50%" stop-color="#15151b"/>
      <stop offset="100%" stop-color="#0a0a0d"/>
    </linearGradient>
  </defs>

  <!-- background -->
  <rect width="800" height="500" fill="url(#bg)"/>

  <!-- browser chrome -->
  <rect width="800" height="42" fill="#1e1e24" rx="18" ry="18"/>
  <rect y="18" width="800" height="24" fill="#1e1e24"/>
  <circle cx="22" cy="21" r="5" fill="#ef4444"/>
  <circle cx="42" cy="21" r="5" fill="#eab308"/>
  <circle cx="62" cy="21" r="5" fill="#22c55e"/>
  <rect x="280" y="10" width="240" height="22" rx="6" fill="#2a2a32"/>
  <text x="400" y="25" text-anchor="middle" fill="#666" font-size="11" font-family="system-ui">onlineschool.ru</text>

  <!-- header -->
  <rect y="42" width="800" height="50" fill="#1a1825"/>
  <rect x="60" y="56" width="160" height="10" rx="5" fill="#a855f7" opacity="0.5"/>
  <rect x="480" y="56" width="55" height="10" rx="5" fill="#ffffff" opacity="0.15"/>
  <rect x="550" y="56" width="70" height="10" rx="5" fill="#ffffff" opacity="0.15"/>
  <rect x="630" y="56" width="65" height="10" rx="5" fill="#ffffff" opacity="0.15"/>
  <rect x="680" y="50" width="60" height="22" rx="6" fill="#a855f7" opacity="0.4"/>

  <!-- hero -->
  <rect x="60" y="118" width="300" height="18" rx="4" fill="#ffffff" opacity="0.9"/>
  <rect x="60" y="148" width="340" height="18" rx="4" fill="#ffffff" opacity="0.9"/>
  <rect x="60" y="190" width="220" height="12" rx="4" fill="#ffffff" opacity="0.3"/>
  <rect x="60" y="210" width="260" height="12" rx="4" fill="#ffffff" opacity="0.3"/>
  <rect x="60" y="240" width="150" height="30" rx="8" fill="#a855f7" opacity="0.6"/>

  <!-- hero image placeholder -->
  <rect x="450" y="108" width="300" height="180" rx="12" fill="#ffffff" opacity="0.06"/>

  <!-- programs section -->
  <rect y="290" width="800" height="210" fill="#0f0f14"/>
  <rect x="60" y="318" width="200" height="14" rx="4" fill="#a855f7" opacity="0.5"/>
  <rect x="60" y="346" width="120" height="8" rx="4" fill="#ffffff" opacity="0.7"/>

  <!-- program cards -->
  <rect x="60" y="370" width="320" height="60" rx="10" fill="#1a1825"/>
  <rect x="420" y="370" width="320" height="60" rx="10" fill="#1a1825"/>
  <rect x="80" y="386" width="100" height="6" rx="3" fill="#ffffff" opacity="0.5"/>
  <rect x="80" y="400" width="280" height="6" rx="3" fill="#ffffff" opacity="0.15"/>
  <rect x="440" y="386" width="120" height="6" rx="3" fill="#ffffff" opacity="0.5"/>
  <rect x="440" y="400" width="260" height="6" rx="3" fill="#ffffff" opacity="0.15"/>

  <!-- bottom card -->
  <rect x="60" y="440" width="680" height="40" rx="8" fill="#1a1825"/>
  <rect x="80" y="452" width="180" height="6" rx="3" fill="#ffffff" opacity="0.4"/>
  <rect x="80" y="464" width="500" height="6" rx="3" fill="#ffffff" opacity="0.12"/>
</svg>
